# Wavefront Obj file
# 
# verts: 52 uv-s: 77
mtllib Tatami Mat.mtl

g pCylinder1
#pivot 0.000000 0.000000 0.000000

v 8.699604 -0.332671 -2.233674
v 7.870797 -0.332671 -4.327003
v 6.547439 -0.332671 -6.148450
v 4.812682 -0.332671 -7.583567
v 2.775526 -0.332671 -8.542181
v 0.563974 -0.332671 -8.964058
v -1.683015 -0.332671 -8.822691
v -3.824254 -0.332671 -8.126961
v -5.725201 -0.332671 -6.920584
v -7.266413 -0.332671 -5.279361
v -8.351049 -0.332671 -3.306417
v -8.910957 -0.332671 -1.125718
v -8.910957 -0.332671 1.125713
v -8.351051 -0.332671 3.306412
v -7.266415 -0.332671 5.279357
v -5.725205 -0.332671 6.920580
v -3.824258 -0.332671 8.126958
v -1.683019 -0.332671 8.822689
v 0.563969 -0.332671 8.964058
v 2.775522 -0.332671 8.542182
v 4.812678 -0.332671 7.583569
v 6.547436 -0.332671 6.148453
v 7.870794 -0.332671 4.327006
v 8.699602 -0.332671 2.233678
v 8.981781 -0.332671 0.000000
v 8.699604 0.332671 -2.233674
v 7.870797 0.332671 -4.327003
v 6.547439 0.332671 -6.148450
v 4.812682 0.332671 -7.583567
v 2.775526 0.332671 -8.542181
v 0.563974 0.332671 -8.964058
v -1.683015 0.332671 -8.822691
v -3.824254 0.332671 -8.126961
v -5.725201 0.332671 -6.920584
v -7.266413 0.332671 -5.279361
v -8.351049 0.332671 -3.306417
v -8.910957 0.332671 -1.125718
v -8.910957 0.332671 1.125713
v -8.351051 0.332671 3.306412
v -7.266415 0.332671 5.279357
v -5.725205 0.332671 6.920580
v -3.824258 0.332671 8.126958
v -1.683019 0.332671 8.822689
v 0.563969 0.332671 8.964058
v 2.775522 0.332671 8.542182
v 4.812678 0.332671 7.583569
v 6.547436 0.332671 6.148453
v 7.870794 0.332671 4.327006
v 8.699602 0.332671 2.233678
v 8.981781 0.332671 0.000000
v 0.000000 -0.332671 0.000000
v 0.000000 0.332671 0.000000
# 52 positions

vt 0.596866 0.751512
vt 0.573911 0.822162
vt 0.555250 0.814058
vt 0.576776 0.748303
vt 0.534108 0.884884
vt 0.518048 0.872393
vt 0.479956 0.935736
vt 0.467508 0.919645
vt 0.414859 0.971525
vt 0.406804 0.952843
vt 0.342907 0.990000
vt 0.339751 0.969902
vt 0.268621 0.990000
vt 0.270562 0.969748
vt 0.196669 0.971525
vt 0.203586 0.952392
vt 0.131572 0.935737
vt 0.143030 0.918926
vt 0.077421 0.884884
vt 0.092700 0.871450
vt 0.037618 0.822162
vt 0.055758 0.812950
vt 0.014663 0.751512
vt 0.034524 0.747101
vt 0.010000 0.677373
vt 0.030334 0.678041
vt 0.023921 0.604405
vt 0.043450 0.610108
vt 0.055552 0.537191
vt 0.073048 0.547572
vt 0.102903 0.479955
vt 0.117268 0.494361
vt 0.163001 0.436293
vt 0.173332 0.453820
vt 0.232068 0.408950
vt 0.237717 0.428494
vt 0.305766 0.399641
vt 0.306377 0.419977
vt 0.379463 0.408950
vt 0.374998 0.428799
vt 0.448530 0.436294
vt 0.439270 0.454409
vt 0.508628 0.479955
vt 0.495153 0.495199
vt 0.555979 0.537191
vt 0.539137 0.548605
vt 0.587610 0.604405
vt 0.568458 0.611272
vt 0.601530 0.677374
vt 0.581273 0.679262
vt 0.480723 0.138310
vt 0.524891 0.084920
vt 0.714118 0.286427
vt 0.451220 0.201007
vt 0.438237 0.269071
vt 0.442587 0.338225
vt 0.463999 0.404125
vt 0.501127 0.462629
vt 0.551639 0.510062
vt 0.612359 0.543443
vt 0.679473 0.560675
vt 0.748764 0.560675
vt 0.815879 0.543443
vt 0.876599 0.510062
vt 0.927110 0.462628
vt 0.964238 0.404124
vt 0.985650 0.338224
vt 0.990000 0.269070
vt 0.977016 0.201006
vt 0.947513 0.138310
vt 0.903345 0.084920
vt 0.847288 0.044192
vt 0.782862 0.018684
vt 0.714118 0.010000
vt 0.645373 0.018685
vt 0.580948 0.044192
vt 0.305764 0.695989
# 77 texture coordinates

vn 0.968583 0.000000 -0.248689
vn 0.876307 0.000000 -0.481753
vn 0.876307 0.000000 -0.481753
vn 0.968583 0.000000 -0.248689
vn 0.728969 0.000000 -0.684547
vn 0.728969 0.000000 -0.684547
vn 0.535827 0.000000 -0.844328
vn 0.535827 0.000000 -0.844328
vn 0.309017 0.000000 -0.951056
vn 0.309017 0.000000 -0.951056
vn 0.062791 0.000000 -0.998027
vn 0.062791 0.000000 -0.998027
vn -0.187381 0.000000 -0.982287
vn -0.187381 0.000000 -0.982287
vn -0.425779 0.000000 -0.904827
vn -0.425779 0.000000 -0.904827
vn -0.637424 0.000000 -0.770513
vn -0.637424 0.000000 -0.770513
vn -0.809017 0.000000 -0.587786
vn -0.809017 0.000000 -0.587786
vn -0.929776 0.000000 -0.368125
vn -0.929776 0.000000 -0.368125
vn -0.992115 0.000000 -0.125333
vn -0.992115 0.000000 -0.125333
vn -0.992115 0.000000 0.125333
vn -0.992115 0.000000 0.125333
vn -0.929777 0.000000 0.368124
vn -0.929777 0.000000 0.368124
vn -0.809017 0.000000 0.587785
vn -0.809017 0.000000 0.587785
vn -0.637424 0.000000 0.770513
vn -0.637424 0.000000 0.770513
vn -0.425779 0.000000 0.904827
vn -0.425779 0.000000 0.904827
vn -0.187381 0.000000 0.982287
vn -0.187381 0.000000 0.982287
vn 0.062790 0.000000 0.998027
vn 0.062790 0.000000 0.998027
vn 0.309017 0.000000 0.951057
vn 0.309017 0.000000 0.951057
vn 0.535827 0.000000 0.844328
vn 0.535827 0.000000 0.844328
vn 0.728969 0.000000 0.684547
vn 0.728969 0.000000 0.684547
vn 0.876307 0.000000 0.481754
vn 0.876307 0.000000 0.481754
vn 0.968583 0.000000 0.248690
vn 0.968583 0.000000 0.248690
vn 1.000000 0.000000 0.000000
vn 1.000000 0.000000 0.000000
vn 0.000000 -1.000000 0.000000
vn 0.000000 -1.000000 0.000000
vn 0.000000 -1.000000 0.000000
vn 0.000000 -1.000000 0.000000
vn 0.000000 -1.000000 0.000000
vn 0.000000 -1.000000 0.000000
vn 0.000000 -1.000000 0.000000
vn 0.000000 -1.000000 0.000000
vn 0.000000 -1.000000 0.000000
vn 0.000000 -1.000000 0.000000
vn 0.000000 -1.000000 0.000000
vn 0.000000 -1.000000 0.000000
vn 0.000000 -1.000000 0.000000
vn 0.000000 -1.000000 0.000000
vn 0.000000 -1.000000 0.000000
vn 0.000000 -1.000000 0.000000
vn 0.000000 -1.000000 0.000000
vn 0.000000 -1.000000 0.000000
vn 0.000000 -1.000000 0.000000
vn 0.000000 -1.000000 0.000000
vn 0.000000 -1.000000 0.000000
vn 0.000000 -1.000000 0.000000
vn 0.000000 -1.000000 0.000000
vn 0.000000 -1.000000 0.000000
vn 0.000000 -1.000000 0.000000
vn 0.000000 -1.000000 0.000000
vn 0.000000 1.000000 0.000000
vn 0.000000 1.000000 0.000000
vn 0.000000 1.000000 0.000000
vn 0.000000 1.000000 0.000000
vn 0.000000 1.000000 0.000000
vn 0.000000 1.000000 0.000000
vn 0.000000 1.000000 0.000000
vn 0.000000 1.000000 0.000000
vn 0.000000 1.000000 0.000000
vn 0.000000 1.000000 0.000000
vn 0.000000 1.000000 0.000000
vn 0.000000 1.000000 0.000000
vn 0.000000 1.000000 0.000000
vn 0.000000 1.000000 0.000000
vn 0.000000 1.000000 0.000000
vn 0.000000 1.000000 0.000000
vn 0.000000 1.000000 0.000000
vn 0.000000 1.000000 0.000000
vn 0.000000 1.000000 0.000000
vn 0.000000 1.000000 0.000000
vn 0.000000 1.000000 0.000000
vn 0.000000 1.000000 0.000000
vn 0.000000 1.000000 0.000000
vn 0.000000 1.000000 0.000000
vn 0.000000 1.000000 0.000000
vn 0.000000 1.000000 0.000000
# 102 normals

usemtl initialShadingGroup
s 1
f 1/1/1 2/2/2 27/3/3 26/4/4
f 2/2/2 3/5/5 28/6/6 27/3/3
f 3/5/5 4/7/7 29/8/8 28/6/6
f 4/7/7 5/9/9 30/10/10 29/8/8
f 5/9/9 6/11/11 31/12/12 30/10/10
f 6/11/11 7/13/13 32/14/14 31/12/12
f 7/13/13 8/15/15 33/16/16 32/14/14
f 8/15/15 9/17/17 34/18/18 33/16/16
f 9/17/17 10/19/19 35/20/20 34/18/18
f 10/19/19 11/21/21 36/22/22 35/20/20
f 11/21/21 12/23/23 37/24/24 36/22/22
f 12/23/23 13/25/25 38/26/26 37/24/24
f 13/25/25 14/27/27 39/28/28 38/26/26
f 14/27/27 15/29/29 40/30/30 39/28/28
f 15/29/29 16/31/31 41/32/32 40/30/30
f 16/31/31 17/33/33 42/34/34 41/32/32
f 17/33/33 18/35/35 43/36/36 42/34/34
f 18/35/35 19/37/37 44/38/38 43/36/36
f 19/37/37 20/39/39 45/40/40 44/38/38
f 20/39/39 21/41/41 46/42/42 45/40/40
f 21/41/41 22/43/43 47/44/44 46/42/42
f 22/43/43 23/45/45 48/46/46 47/44/44
f 23/45/45 24/47/47 49/48/48 48/46/46
f 24/47/47 25/49/49 50/50/50 49/48/48
f 25/49/49 1/1/1 26/4/4 50/50/50
s 2
f 2/51/51 1/52/52 51/53/53
f 3/54/54 2/51/51 51/53/53
f 4/55/55 3/54/54 51/53/53
f 5/56/56 4/55/55 51/53/53
f 6/57/57 5/56/56 51/53/53
f 7/58/58 6/57/57 51/53/53
f 8/59/59 7/58/58 51/53/53
f 9/60/60 8/59/59 51/53/53
f 10/61/61 9/60/60 51/53/53
f 11/62/62 10/61/61 51/53/53
f 12/63/63 11/62/62 51/53/53
f 13/64/64 12/63/63 51/53/53
f 14/65/65 13/64/64 51/53/53
f 15/66/66 14/65/65 51/53/53
f 16/67/67 15/66/66 51/53/53
f 17/68/68 16/67/67 51/53/53
f 18/69/69 17/68/68 51/53/53
f 19/70/70 18/69/69 51/53/53
f 20/71/71 19/70/70 51/53/53
f 21/72/72 20/71/71 51/53/53
f 22/73/73 21/72/72 51/53/53
f 23/74/74 22/73/73 51/53/53
f 24/75/75 23/74/74 51/53/53
f 25/76/76 24/75/75 51/53/53
f 1/52/52 25/76/76 51/53/53
s 3
f 26/4/77 27/3/78 52/77/79
f 27/3/78 28/6/80 52/77/79
f 28/6/80 29/8/81 52/77/79
f 29/8/81 30/10/82 52/77/79
f 30/10/82 31/12/83 52/77/79
f 31/12/83 32/14/84 52/77/79
f 32/14/84 33/16/85 52/77/79
f 33/16/85 34/18/86 52/77/79
f 34/18/86 35/20/87 52/77/79
f 35/20/87 36/22/88 52/77/79
f 36/22/88 37/24/89 52/77/79
f 37/24/89 38/26/90 52/77/79
f 38/26/90 39/28/91 52/77/79
f 39/28/91 40/30/92 52/77/79
f 40/30/92 41/32/93 52/77/79
f 41/32/93 42/34/94 52/77/79
f 42/34/94 43/36/95 52/77/79
f 43/36/95 44/38/96 52/77/79
f 44/38/96 45/40/97 52/77/79
f 45/40/97 46/42/98 52/77/79
f 46/42/98 47/44/99 52/77/79
f 47/44/99 48/46/100 52/77/79
f 48/46/100 49/48/101 52/77/79
f 49/48/101 50/50/102 52/77/79
f 50/50/102 26/4/77 52/77/79

# 75 faces
