# This file uses centimeters as units for non-parametric coordinates.

mtllib furosaki_Fence.mtl
g default
v -0.067198 0.000000 1.843765
v 0.067197 0.000000 1.843765
v -0.067197 1.119175 1.843765
v 0.067197 1.119175 1.843765
v -0.067197 1.119175 -1.843765
v 0.067197 1.119175 -1.843765
v -0.067198 0.000000 -1.843765
v 0.067197 0.000000 -1.843765
v 0.061679 0.045963 -1.790298
v 0.061679 0.045963 1.790298
v 0.061679 1.073211 -1.790298
v 0.061678 1.073211 1.790298
v -0.061678 0.045963 -1.790298
v -0.061678 0.045963 1.790298
v -0.061678 1.073211 1.790298
v -0.061678 1.073211 -1.790298
v 0.040604 0.045963 -1.790298
v 0.040604 0.045963 1.790298
v 0.040604 1.073211 -1.790298
v 0.040604 1.073211 1.790298
v -0.040601 0.045963 -1.790298
v -0.040601 0.045963 1.790298
v -0.040601 1.073211 1.790298
v -0.040601 1.073211 -1.790298
v 0.067195 1.119175 -1.703455
v -0.067197 1.119175 -1.703455
v 0.067195 1.119175 1.703456
v -0.067197 1.119175 1.703456
v -0.067198 3.041702 1.843765
v 0.067198 3.041702 1.843765
v 0.067198 3.041702 1.703456
v -0.067198 3.041702 1.703456
v 0.067198 3.041702 -1.703455
v -0.067198 3.041702 -1.703455
v 0.067198 3.041702 -1.843765
v -0.067198 3.041702 -1.843765
v 0.067198 2.893639 -1.703455
v -0.067198 2.893639 -1.703455
v -0.067198 2.893639 -1.843765
v 0.067198 2.893639 -1.843765
v 0.067198 2.893763 1.703456
v -0.067198 2.893763 1.703456
v -0.067198 2.893763 1.843765
v 0.067198 2.893763 1.843765
vt 0.458472 0.003535
vt 0.474838 0.003634
vt 0.474256 0.140019
vt 0.457846 0.139924
vt 0.899966 0.324631
vt 0.916345 0.324631
vt 0.916346 0.540905
vt 0.899966 0.540905
vt 0.916346 0.558935
vt 0.899966 0.558935
vt 0.916346 0.576034
vt 0.899966 0.576034
vt 0.491008 0.124256
vt 0.491008 0.107876
vt 0.508108 0.107876
vt 0.508108 0.124256
vt 0.905535 0.284132
vt 0.905535 0.300511
vt 0.490326 0.300496
vt 0.490327 0.284116
vt 0.474778 0.314401
vt 0.458359 0.314309
vt 0.458958 0.177902
vt 0.475323 0.178005
vt 0.742412 0.107876
vt 0.742412 0.124255
vt 0.526153 0.124256
vt 0.526153 0.107876
vt 0.458359 0.450841
vt 0.894735 0.450841
vt 0.894735 0.576034
vt 0.458359 0.576034
vt 0.906897 0.140003
vt 0.917478 0.134357
vt 0.924043 0.139932
vt 0.933445 0.324631
vt 0.933446 0.540905
vt 0.742412 0.090776
vt 0.526153 0.090776
vt 0.508108 0.090776
vt 0.905536 0.266087
vt 0.490327 0.266087
vt 0.933446 0.558935
vt 0.917281 0.009181
vt 0.923782 0.003535
vt 0.480843 0.134461
vt 0.481355 0.009273
vt 0.491428 0.140099
vt 0.924372 0.178005
vt 0.917827 0.183635
vt 0.481828 0.183651
vt 0.924845 0.314390
vt 0.918251 0.308838
vt 0.907685 0.314485
vt 0.949824 0.324631
vt 0.966924 0.324632
vt 0.966925 0.540905
vt 0.949825 0.540905
vt 0.742412 0.057297
vt 0.742412 0.074397
vt 0.526153 0.074397
vt 0.526154 0.057297
vt 0.508108 0.074397
vt 0.508108 0.057297
vt 0.905535 0.231662
vt 0.905536 0.249707
vt 0.490327 0.249707
vt 0.490327 0.231678
vt 0.966925 0.558935
vt 0.949825 0.558935
vt 0.481365 0.308842
vt 0.491945 0.314486
vt 0.914913 0.134369
vt 0.914705 0.009193
vt 0.483925 0.009289
vt 0.483407 0.134476
vt 0.915685 0.308855
vt 0.915249 0.183655
vt 0.484399 0.183667
vt 0.483928 0.308859
vt 0.491456 0.156476
vt 0.906819 0.156380
vt 0.481375 0.306273
vt 0.918226 0.306269
vt 0.917834 0.186204
vt 0.481809 0.186220
vt 0.475224 0.161626
vt 0.924399 0.161625
vt 0.481348 0.011842
vt 0.917303 0.011750
vt 0.894736 0.320067
vt 0.894735 0.445260
vt 0.458359 0.445260
vt 0.458359 0.320067
vt 0.480848 0.131892
vt 0.917463 0.131789
vn 0.000000 0.000000 1.000000
vn 0.000000 0.000000 1.000000
vn 0.000000 0.000000 1.000000
vn 0.000000 0.000000 1.000000
vn 0.000000 0.000000 1.000000
vn 0.000000 0.000000 1.000000
vn 0.000000 0.000000 1.000000
vn 0.000000 0.000000 1.000000
vn 0.000000 0.000000 1.000000
vn 0.000000 0.000000 1.000000
vn 0.000000 0.000000 1.000000
vn 0.000000 0.000000 1.000000
vn 0.000000 1.000000 0.000000
vn 0.000000 1.000000 0.000000
vn 0.000000 1.000000 0.000000
vn 0.000000 1.000000 0.000000
vn 0.000000 1.000000 0.000000
vn 0.000000 1.000000 0.000000
vn 0.000000 1.000000 0.000000
vn 0.000000 1.000000 0.000000
vn 0.000000 1.000000 0.000000
vn 0.000000 1.000000 0.000000
vn 0.000000 1.000000 0.000000
vn 0.000000 1.000000 0.000000
vn 0.000000 0.000000 -1.000000
vn 0.000000 0.000000 -1.000000
vn 0.000000 0.000000 -1.000000
vn 0.000000 0.000000 -1.000000
vn 0.000000 0.000000 -1.000000
vn 0.000000 0.000000 -1.000000
vn 0.000000 0.000000 -1.000000
vn 0.000000 0.000000 -1.000000
vn 0.000000 0.000000 -1.000000
vn 0.000000 0.000000 -1.000000
vn 0.000000 0.000000 -1.000000
vn 0.000000 0.000000 -1.000000
vn -1.000000 0.000000 0.000000
vn -1.000000 0.000000 0.000000
vn -1.000000 0.000000 0.000000
vn -1.000000 0.000000 0.000000
vn 0.996828 -0.079589 0.000003
vn 0.996849 -0.061685 0.049860
vn 0.999234 -0.027086 0.028229
vn 0.999234 -0.027092 -0.028232
vn 0.996827 -0.079592 -0.000003
vn 1.000000 0.000000 -0.000002
vn 1.000000 -0.000001 -0.000002
vn 0.996828 -0.079589 0.000003
vn 0.999234 -0.027086 0.028229
vn 1.000000 -0.000001 0.000002
vn 1.000000 0.000000 0.000002
vn 1.000000 0.000000 0.000002
vn 1.000000 -0.000001 0.000002
vn 1.000000 0.000000 0.000000
vn 1.000000 0.000000 0.000000
vn 1.000000 0.000000 0.000002
vn 1.000000 0.000000 0.000000
vn 1.000000 0.000000 0.000000
vn 1.000000 0.000000 -0.000002
vn 1.000000 -0.000001 -0.000002
vn 1.000000 0.000000 -0.000002
vn 1.000000 0.000000 0.000000
vn 1.000000 0.000000 0.000000
vn 0.999234 -0.027086 0.028229
vn 0.996849 -0.061685 0.049860
vn 0.994715 0.000000 0.102670
vn 0.994715 0.000000 0.102670
vn 0.996848 -0.061696 -0.049867
vn 0.999234 -0.027092 -0.028232
vn 0.994714 0.000001 -0.102683
vn 0.994714 0.000001 -0.102683
vn 0.996848 -0.061696 -0.049867
vn 0.996849 -0.061685 0.049860
vn 0.996828 -0.079589 0.000003
vn 0.996827 -0.079592 -0.000003
vn 0.996848 -0.061696 -0.049867
vn 0.996827 -0.079592 -0.000003
vn 0.999234 -0.027092 -0.028232
vn -0.992865 0.119240 0.000000
vn -0.992865 0.119240 0.000000
vn -0.992865 0.119240 0.000000
vn -0.992865 0.119240 0.000000
vn -0.994714 0.000001 -0.102683
vn -0.994714 0.000001 -0.102683
vn -0.994714 0.000001 -0.102683
vn -0.994714 0.000001 -0.102683
vn -0.996827 -0.079598 0.000000
vn -0.992869 -0.119207 0.000000
vn -0.999304 -0.037297 0.000000
vn -0.996827 -0.079598 0.000000
vn -0.999304 -0.037297 0.000000
vn -1.000000 0.000000 0.000000
vn -1.000000 0.000000 0.000000
vn -0.999304 -0.037297 0.000000
vn -0.996827 -0.079598 0.000000
vn -1.000000 0.000000 0.000000
vn -1.000000 0.000000 0.000000
vn -1.000000 0.000000 0.000000
vn -1.000000 0.000000 0.000000
vn -1.000000 0.000000 0.000000
vn -1.000000 0.000000 0.000000
vn -1.000000 0.000000 0.000000
vn -1.000000 0.000000 0.000000
vn -1.000000 0.000000 0.000000
vn -1.000000 0.000000 0.000000
vn -1.000000 0.000000 0.000000
vn -1.000000 0.000000 0.000000
vn -1.000000 0.000000 0.000000
vn -1.000000 0.000000 0.000000
vn -0.992869 -0.119207 0.000000
vn -0.996827 -0.079598 0.000000
vn -0.999304 -0.037297 0.000000
vn -0.992869 -0.119207 0.000000
vn -0.992869 -0.119207 0.000000
vn -0.996827 -0.079598 0.000000
vn -0.996827 -0.079598 0.000000
vn -0.994714 0.000001 0.102683
vn -0.994714 0.000001 0.102683
vn -0.994714 0.000001 0.102683
vn -0.994714 0.000001 0.102683
vn 0.000000 0.000000 1.000000
vn 0.000000 0.000000 1.000000
vn 0.000000 0.000000 1.000000
vn 0.000000 0.000000 1.000000
vn 0.000000 0.000000 -1.000000
vn 0.000000 0.000000 -1.000000
vn 0.000000 0.000000 -1.000000
vn 0.000000 0.000000 -1.000000
vn 0.000000 0.000000 -1.000000
vn 0.000000 0.000000 -1.000000
vn 0.000000 0.000000 -1.000000
vn 0.000000 0.000000 -1.000000
vn 0.000000 0.000000 1.000000
vn 0.000000 0.000000 1.000000
vn 0.000000 0.000000 1.000000
vn 0.000000 0.000000 1.000000
vn 0.000000 1.000000 0.000000
vn 0.000000 1.000000 0.000000
vn 0.000000 1.000000 0.000000
vn 0.000000 1.000000 0.000000
vn 0.000000 -1.000000 0.000000
vn 0.000000 -1.000000 0.000000
vn 0.000000 -1.000000 0.000000
vn 0.000000 -1.000000 0.000000
vn 0.000000 1.000000 0.000000
vn 0.000000 1.000000 0.000000
vn 0.000000 1.000000 0.000000
vn 0.000000 1.000000 0.000000
vn 0.000000 -1.000000 0.000000
vn 0.000000 -1.000000 0.000000
vn 0.000000 -1.000000 0.000000
vn 0.000000 -1.000000 0.000000
vn 0.992869 0.119211 0.000000
vn 0.992869 0.119211 0.000000
vn 0.992869 0.119211 0.000000
vn 0.992869 0.119211 0.000000
vn 0.000000 1.000000 0.000000
vn 0.000000 1.000000 0.000000
vn 0.000000 1.000000 0.000000
vn 0.000000 1.000000 0.000000
vn 1.000000 0.000000 0.000000
vn 1.000000 0.000000 0.000000
vn 1.000000 0.000000 0.000000
vn 1.000000 0.000000 0.000000
vn 0.000000 -1.000000 0.000000
vn 0.000000 -1.000000 0.000000
vn 0.000000 -1.000000 0.000000
vn 0.000000 -1.000000 0.000000
vn 0.000000 0.000000 -1.000000
vn 0.000000 0.000000 -1.000000
vn 0.000000 0.000000 -1.000000
vn 0.000000 0.000000 -1.000000
vn 0.000000 0.000000 1.000000
vn 0.000000 0.000000 1.000000
vn 0.000000 0.000000 1.000000
vn 0.000000 0.000000 1.000000
vn 0.000000 -1.000000 0.000036
vn 0.000000 -1.000000 0.000036
vn 0.000000 -1.000000 0.000036
vn 0.000000 -1.000000 0.000036
s off
g polySurface2 Furosaki_SET:pCube264
usemtl lambert3SG
f 1/1/1 2/2/2 4/3/3 3/4/4
f 3/5/5 4/6/6 44/7/7 43/8/8
f 43/8/9 44/7/10 30/9/11 29/10/12
f 29/10/13 30/9/14 31/11/15 32/12/16
f 34/13/17 33/14/18 35/15/19 36/16/20
f 33/17/21 34/18/22 32/19/23 31/20/24
f 5/21/25 6/22/26 8/23/27 7/24/28
f 6/25/29 5/26/30 39/27/31 40/28/32
f 40/28/33 39/27/34 36/16/35 35/15/36
f 21/29/37 22/30/38 23/31/39 24/32/40
f 25/33/41 11/34/42 6/35/43
f 4/6/44 27/36/45 41/37/46 44/7/47
f 25/38/48 6/25/49 40/28/50 37/39/51
f 37/39/52 40/28/53 35/15/54 33/40/55
f 37/41/56 33/17/57 31/20/58 41/42/59
f 44/7/60 41/37/61 31/43/62 30/9/63
f 6/35/64 11/34/65 9/44/66 8/45/67
f 12/46/68 4/3/69 2/2/70 10/47/71
f 12/46/72 11/34/73 25/33/74 27/48/75
f 12/46/76 27/48/77 4/3/78
f 7/24/79 1/49/80 14/50/81 13/51/82
f 1/49/83 3/52/84 15/53/85 14/50/86
f 28/54/87 15/53/88 3/52/89
f 28/55/90 3/56/91 43/57/92 42/58/93
f 5/59/94 26/60/95 38/61/96 39/62/97
f 39/62/98 38/61/99 34/63/100 36/64/101
f 34/65/102 38/66/103 42/67/104 32/68/105
f 42/58/106 43/57/107 29/69/108 32/70/109
f 16/71/110 26/72/111 5/21/112
f 16/71/113 15/53/114 28/54/115 26/72/116
f 5/21/117 7/24/118 13/51/119 16/71/120
f 9/44/121 11/34/122 19/73/123 17/74/124
f 12/46/125 10/47/126 18/75/127 20/76/128
f 14/50/129 15/53/130 23/77/131 22/78/132
f 16/71/133 13/51/134 21/79/135 24/80/136
f 28/81/137 27/48/138 25/33/139 26/82/140
f 24/83/141 23/84/142 15/53/143 16/71/144
f 13/51/145 14/50/146 22/85/147 21/86/148
f 7/24/149 8/87/150 2/88/151 1/49/152
f 10/47/153 2/2/154 8/45/155 9/44/156
f 18/89/157 10/47/158 9/44/159 17/90/160
f 20/91/161 18/92/162 17/93/163 19/94/164
f 11/34/165 12/46/166 20/95/167 19/96/168
f 27/36/169 28/55/170 42/58/171 41/37/172
f 26/60/173 25/38/174 37/39/175 38/61/176
f 38/66/177 37/41/178 41/42/179 42/67/180
